<?xml version="1.0" standalone="no"?>
<!DOCTYPE svg PUBLIC "-//W3C//DTD SVG 20010904//EN"
 "http://www.w3.org/TR/2001/REC-SVG-20010904/DTD/svg10.dtd">
<svg version="1.0" xmlns="http://www.w3.org/2000/svg"
 width="848.000000pt" height="848.000000pt" viewBox="0 0 848.000000 848.000000"
 preserveAspectRatio="xMidYMid meet">
<metadata>
Created by potrace 1.14, written by Peter Selinger 2001-2017
</metadata>
<g transform="translate(0.000000,848.000000) scale(0.100000,-0.100000)"
fill="#000000" stroke="none">
<path d="M4050 8474 c-490 -32 -868 -108 -1264 -253 -861 -318 -1587 -893
-2089 -1657 -923 -1403 -926 -3219 -9 -4639 156 -242 382 -516 599 -726 598
-580 1337 -964 2162 -1124 74 -14 135 -24 136 -23 1 2 -10 66 -26 143 -36 179
-47 252 -40 263 3 5 56 28 117 50 61 23 138 53 170 67 54 24 62 25 98 14 34
-11 39 -11 48 4 5 10 14 15 19 11 6 -3 9 5 7 22 -3 24 4 32 52 61 70 41 129
52 294 55 143 2 148 1 242 -64 87 -62 186 -108 272 -128 48 -12 95 -23 105
-26 22 -7 22 -54 -2 -284 -10 -96 -17 -177 -15 -179 7 -7 188 29 355 70 759
189 1463 599 2017 1174 861 893 1287 2135 1156 3375 -73 700 -313 1357 -705
1935 -708 1044 -1821 1708 -3081 1839 -142 15 -512 27 -618 20z m-193 -2168
c15 -8 48 -20 73 -26 25 -7 53 -16 62 -21 10 -5 40 -9 67 -9 28 0 76 -7 108
-15 65 -17 101 -12 82 11 -10 12 -2 13 52 8 35 -4 71 -10 80 -15 9 -5 20 -5
24 -1 13 13 179 1 204 -15 19 -12 25 -13 32 -2 6 10 12 9 28 -5 12 -11 21 -14
21 -9 0 6 10 13 22 16 12 4 19 10 14 14 -7 8 -11 9 -37 12 -8 1 -8 5 1 15 14
18 37 11 45 -15 8 -25 25 -24 25 1 0 20 5 22 93 24 12 1 25 5 28 9 3 4 35 9
70 11 75 4 139 -18 139 -47 0 -14 5 -17 21 -12 13 5 25 2 29 -6 5 -7 22 -12
40 -12 26 0 31 -4 27 -19 -3 -11 0 -18 9 -18 8 0 14 4 14 8 0 4 9 8 20 8 11 0
20 -4 20 -8 0 -4 6 -8 14 -8 8 0 21 -7 29 -15 8 -8 29 -17 47 -20 31 -5 100
-52 100 -67 0 -5 6 -8 13 -8 20 0 77 -51 77 -69 0 -13 2 -13 9 -2 7 10 13 11
30 2 11 -7 21 -9 21 -5 0 3 6 1 14 -5 10 -8 21 -8 40 -1 39 14 42 13 21 -11
-19 -20 -19 -20 9 -10 15 6 29 11 32 11 9 0 4 -49 -6 -55 -5 -3 -10 -22 -10
-41 0 -21 4 -33 10 -29 6 3 10 -1 10 -9 0 -9 4 -16 9 -16 4 0 11 -26 15 -57 4
-32 9 -69 11 -83 2 -14 8 -38 14 -54 9 -23 9 -36 -3 -60 -7 -17 -17 -56 -20
-87 -6 -44 -4 -58 9 -69 10 -8 15 -27 13 -58 -1 -26 3 -47 10 -50 6 -2 9 -9 6
-16 -3 -7 2 -19 11 -26 8 -7 15 -18 15 -26 0 -12 12 -42 42 -110 5 -11 8 -94
6 -185 -3 -162 -3 -164 -33 -211 -25 -41 -35 -48 -61 -48 -27 0 -32 4 -37 30
-9 45 -76 104 -143 129 -33 11 -79 32 -104 45 -25 13 -89 38 -142 56 -71 23
-98 37 -98 49 0 27 77 52 200 66 99 12 118 12 137 -1 12 -8 29 -14 38 -14 8 0
15 -6 15 -14 0 -17 35 -40 73 -50 26 -6 28 -5 22 16 -4 13 -19 50 -35 83 -25
53 -33 62 -74 77 -25 9 -46 14 -46 10 0 -14 -44 -7 -70 10 -27 18 -85 14 -73
-5 3 -6 -4 -3 -18 6 -30 21 -53 22 -45 2 6 -16 -28 -22 -38 -6 -9 14 -62 21
-95 11 -17 -4 -63 -11 -103 -15 -40 -4 -80 -11 -89 -15 -8 -5 -31 -9 -50 -9
-19 -1 -47 -1 -64 -1 -48 -1 -125 -29 -119 -44 3 -7 -7 -18 -21 -24 -19 -9
-26 -19 -23 -35 1 -12 -7 -40 -20 -60 -12 -21 -22 -44 -22 -51 0 -7 -6 -21
-14 -31 -8 -11 -12 -24 -10 -30 2 -5 -16 -32 -41 -58 -57 -61 -100 -71 -167
-37 -46 23 -67 23 -228 4 -47 -5 -53 -4 -42 9 14 16 1 67 -17 67 -5 0 -12 13
-16 30 -3 16 -16 41 -28 56 -13 17 -17 29 -10 31 8 3 9 14 3 34 -5 17 -6 37
-3 46 4 10 2 14 -4 10 -5 -3 -27 12 -49 34 -21 22 -50 46 -64 53 -14 7 -46 25
-72 40 -36 21 -62 27 -119 30 -45 1 -74 7 -77 14 -3 9 -9 9 -23 1 -21 -11 -43
-3 -34 12 4 5 -4 9 -15 9 -12 0 -34 6 -48 14 -15 8 -34 17 -42 20 -8 3 -23 11
-32 18 -14 10 -22 10 -36 2 -10 -6 -33 -15 -52 -19 -35 -7 -35 -7 -16 13 l19
21 -67 -6 c-47 -4 -66 -3 -66 6 0 8 -9 7 -29 -3 -16 -9 -48 -18 -72 -22 -24
-4 -53 -14 -64 -23 -33 -28 -73 -51 -89 -51 -17 0 -50 -54 -52 -85 -1 -11 3
-23 10 -28 7 -4 3 -9 -11 -13 -29 -8 -29 -19 -2 -37 13 -9 16 -17 10 -22 -17
-10 -13 -25 7 -25 25 0 34 -11 22 -25 -11 -13 3 -65 17 -65 5 0 9 -14 10 -30
2 -30 2 -30 -52 -30 -32 0 -57 5 -62 13 -4 6 -17 17 -28 24 -11 7 -42 26 -70
42 -63 38 -116 88 -110 104 3 6 6 44 8 82 2 39 11 86 20 105 8 19 21 53 28 75
7 22 19 49 26 60 12 18 13 18 13 -10 0 -26 2 -28 15 -15 8 8 16 26 17 40 2 14
9 31 16 38 6 7 12 20 12 28 0 8 4 14 9 14 5 0 20 21 33 48 16 32 29 46 40 44
29 -5 48 37 43 98 -2 31 1 60 7 68 16 18 19 115 5 124 -18 12 53 75 99 87 21
6 45 20 52 32 9 14 9 19 2 14 -9 -6 -9 -2 -1 14 7 11 15 21 19 22 61 5 74 10
96 35 14 16 26 33 26 38 0 4 7 6 15 3 8 -4 17 -2 21 4 3 6 12 8 20 5 11 -4 13
1 8 21 -6 23 -4 25 15 20 20 -5 27 7 22 37 -1 5 2 12 6 15 4 3 13 15 19 25 6
11 24 24 40 29 16 4 38 12 49 17 11 5 37 14 57 20 21 6 40 16 43 21 9 14 130
11 162 -5z m-389 -1131 c51 -16 69 -24 134 -64 71 -43 61 -52 -82 -67 -67 -7
-62 -22 9 -23 70 -2 20 -12 -104 -22 -93 -8 -130 -7 -140 1 -8 7 -24 9 -36 5
-14 -5 -25 -2 -30 6 -8 12 -11 11 -19 -2 -5 -9 -21 -24 -36 -34 -25 -16 -26
-16 -20 3 5 15 1 22 -15 27 -15 5 -18 9 -9 15 9 6 6 10 -10 15 -16 5 -19 10
-11 18 7 7 18 7 36 -1 14 -6 25 -8 25 -3 0 5 -10 12 -22 15 -23 6 -23 6 -3 22
11 8 19 24 17 35 -2 14 3 22 18 26 17 4 19 8 8 15 -9 6 -2 8 22 5 20 -2 40 1
47 9 18 18 159 17 221 -1z m-1024 -79 c28 -18 71 -40 96 -47 58 -16 67 -24 75
-60 4 -16 10 -29 15 -29 11 0 24 -104 16 -125 -7 -19 -84 35 -173 122 -59 58
-160 123 -189 123 -24 0 -4 26 29 37 55 18 78 14 131 -21z m1291 -65 c33 -7
23 -9 -53 -10 -60 -1 -91 3 -87 9 7 12 84 12 140 1z m2495 -6 c31 -16 60 -61
60 -92 0 -13 -3 -14 -12 -5 -27 27 -70 14 -115 -35 -24 -25 -40 -49 -36 -52 4
-3 8 -10 8 -16 0 -5 6 -34 14 -62 10 -40 18 -53 31 -53 10 0 25 -2 32 -5 15
-6 48 56 48 89 0 10 5 27 11 38 15 28 30 4 19 -31 -5 -14 -11 -56 -14 -92 -4
-42 -20 -99 -46 -163 -22 -55 -54 -152 -70 -218 -16 -65 -47 -158 -68 -206
-22 -48 -45 -109 -51 -137 -19 -80 -50 -118 -111 -138 -29 -9 -70 -17 -91 -17
-34 0 -39 3 -40 23 0 21 -1 21 -8 2 -5 -11 -6 -25 -4 -31 7 -18 -54 -245 -109
-409 -31 -91 -119 -265 -134 -265 -13 0 -27 -21 -62 -95 -11 -22 -40 -62 -66
-88 -25 -27 -46 -52 -46 -55 0 -4 -18 -23 -39 -42 -22 -18 -38 -37 -35 -41 2
-5 -8 -16 -23 -26 -15 -10 -30 -20 -33 -23 -15 -18 -122 -100 -131 -100 -5 0
-32 -17 -58 -37 -112 -86 -209 -150 -273 -180 -37 -17 -68 -30 -68 -27 0 2
-11 -3 -25 -12 -20 -13 -56 -18 -158 -20 -73 -2 -140 -4 -149 -5 -10 0 -18 -5
-18 -12 0 -8 -3 -8 -12 1 -7 7 -17 8 -28 2 -20 -11 -120 -5 -167 9 -17 5 -33
7 -36 5 -7 -8 -72 24 -91 45 -11 12 -30 21 -43 21 -14 0 -23 6 -23 15 0 18
-16 20 -23 3 -4 -8 -8 -4 -13 10 -3 12 -11 22 -18 21 -22 -4 -68 21 -63 34 3
8 -4 14 -18 15 -37 3 -75 21 -75 35 0 18 -54 57 -79 57 -11 0 -35 8 -54 19
-18 10 -48 22 -67 26 -18 4 -48 22 -67 41 -18 19 -37 34 -41 34 -4 0 -23 20
-42 45 -19 24 -42 45 -50 45 -19 1 -63 68 -56 86 3 7 -6 15 -20 18 -13 4 -24
12 -24 20 0 7 -13 25 -30 39 -16 15 -30 36 -30 46 0 11 -8 22 -18 25 -17 6
-52 62 -108 176 -15 30 -31 57 -36 58 -4 2 -8 8 -8 13 0 6 -10 23 -21 39 -12
16 -19 36 -16 45 4 9 -2 24 -14 36 l-21 21 21 22 21 23 -24 11 c-25 11 -36 47
-31 94 3 20 0 26 -11 21 -9 -3 -19 6 -28 28 -12 29 -12 35 1 44 16 12 15 122
-1 117 -14 -5 -36 67 -36 116 0 24 -4 41 -9 38 -12 -8 -31 40 -31 80 0 19 -7
49 -16 65 -12 24 -14 46 -8 102 7 67 6 71 -10 58 -19 -16 -31 -9 -22 15 3 9
13 14 21 10 19 -7 31 12 16 27 -8 8 -11 7 -11 -4 0 -9 -8 -5 -20 11 -16 21
-20 22 -20 7 0 -10 -4 -16 -9 -12 -6 3 -4 22 5 47 9 26 11 45 5 52 -12 14 -17
169 -6 186 7 11 11 48 18 165 3 51 11 75 27 75 5 0 39 -27 77 -60 37 -33 70
-60 73 -60 3 0 26 -27 50 -60 25 -33 52 -60 61 -60 12 0 19 -16 27 -54 11 -56
56 -156 70 -156 11 0 7 61 -5 85 -6 11 -13 34 -16 51 -6 31 -5 32 41 39 25 4
55 13 66 21 29 20 50 18 112 -12 l54 -25 29 20 c15 11 31 18 34 15 3 -3 13 -2
22 4 11 5 35 6 64 0 25 -5 62 -11 81 -12 19 -2 47 -6 63 -11 16 -4 27 -3 27 3
0 6 8 8 19 5 10 -3 32 2 49 11 17 9 37 14 44 11 15 -6 56 20 47 29 -3 3 -43 8
-90 12 -116 8 -153 17 -157 36 -2 12 2 15 16 11 11 -2 38 5 62 17 42 21 70 65
70 110 0 11 2 20 5 20 20 0 114 -83 115 -101 0 -4 -9 -17 -19 -31 l-20 -25 72
5 c40 2 74 5 76 8 6 6 -49 76 -96 122 -26 24 -54 42 -67 42 -13 0 -36 7 -53
15 -69 34 -222 42 -276 13 -9 -5 -23 -5 -30 -1 -6 4 -15 8 -19 8 -21 0 -7 22
23 38 30 16 50 18 169 13 146 -7 267 -25 235 -36 -16 -6 -14 -9 16 -30 19 -13
36 -27 39 -30 3 -3 28 -17 55 -31 51 -26 98 -82 110 -130 4 -17 0 -32 -14 -48
-25 -28 -28 -53 -6 -45 9 4 15 0 15 -9 0 -8 -5 -17 -10 -19 -6 -2 -8 -21 -4
-50 4 -26 10 -45 15 -43 12 8 19 -10 8 -25 -8 -13 -10 -13 -20 0 -8 11 -9 4
-5 -28 7 -45 9 -40 -76 -133 -26 -28 -8 -23 43 10 61 41 124 125 154 207 10
27 22 54 26 60 5 6 13 34 20 62 17 84 40 95 174 90 75 -3 120 -10 141 -21 31
-16 31 -16 38 -122 11 -165 53 -273 135 -348 23 -21 50 -37 62 -37 17 0 11 9
-30 43 -27 23 -59 54 -70 68 -31 40 -62 143 -54 180 l6 32 14 -27 c11 -21 19
-26 36 -20 12 3 28 12 36 19 11 11 10 14 -7 19 -23 8 -39 39 -23 44 17 6 13
27 -11 58 -13 15 -16 24 -8 20 12 -7 13 -6 3 5 -15 16 -17 33 -3 24 6 -3 7 1
4 9 -3 9 -2 16 3 16 6 0 18 18 28 40 15 33 25 42 59 51 42 11 66 25 66 40 0
12 -53 -6 -109 -37 -47 -25 -81 -69 -81 -106 0 -20 -29 -95 -30 -77 -1 42 25
137 44 157 11 13 21 31 21 40 0 21 45 44 60 32 7 -6 41 -4 89 5 79 15 281 20
220 6 -17 -4 -36 -11 -43 -15 -6 -4 -24 -10 -38 -12 -36 -7 -80 -35 -117 -73
-27 -28 -28 -31 -10 -32 34 -2 48 2 77 27 36 30 67 32 67 4 0 -87 113 -141
191 -92 36 22 59 58 59 92 0 31 28 23 35 -9 10 -46 -4 -80 -39 -95 -77 -33
-85 -35 -92 -25 -4 7 -10 7 -16 1 -5 -5 -30 -6 -60 -1 -34 6 -56 5 -65 -2 -7
-6 -20 -8 -29 -5 -11 4 -14 1 -12 -12 2 -10 12 -17 26 -16 12 0 22 -2 22 -6 0
-4 17 -7 37 -8 23 -1 43 -8 50 -18 9 -12 16 -14 25 -6 7 5 65 13 128 17 110 6
116 7 145 35 18 18 42 30 57 30 14 0 29 7 32 16 6 17 -9 54 -23 54 -5 0 -20
18 -35 40 -14 22 -34 40 -44 40 -9 0 -40 11 -69 24 -28 14 -71 27 -95 30 -55
7 -118 22 -126 31 -4 4 11 5 33 1 22 -3 85 -8 140 -10 l100 -5 -85 9 c-47 5
-101 14 -120 19 -19 6 -66 13 -105 17 l-70 7 50 18 c67 24 143 23 234 -1 78
-22 134 -54 116 -67 -20 -16 -13 -32 33 -71 54 -45 96 -49 100 -8 1 19 -7 25
-61 41 -77 23 -59 32 23 11 90 -23 157 -55 185 -87 22 -27 23 -34 19 -126 -4
-84 -18 -163 -40 -237 -4 -12 -2 -16 5 -12 16 10 14 1 -10 -45 -27 -54 -17
-61 15 -12 28 42 61 152 71 237 l7 56 67 0 c39 0 72 -5 79 -12 7 -7 12 -40 12
-77 0 -76 5 -87 41 -96 23 -6 28 -3 38 26 9 26 8 35 -4 49 -8 9 -15 27 -15 39
0 13 -9 36 -21 52 -15 22 -18 37 -13 64 3 19 10 35 15 35 4 0 13 9 19 20 9 16
8 19 -6 13 -15 -6 -16 0 -10 48 9 70 25 129 34 127 14 -2 82 32 82 42 0 6 7
10 15 10 8 0 20 10 26 22 16 30 50 57 72 58 10 0 31 -7 47 -15z m-3972 -250
c27 -69 42 -69 42 0 0 35 4 54 10 50 6 -3 10 -14 10 -23 0 -10 9 -36 20 -57
14 -26 22 -65 24 -111 4 -82 24 -157 65 -243 31 -67 48 -91 63 -91 5 0 -2 14
-16 30 -14 17 -30 48 -35 68 -6 20 -17 64 -26 97 -22 82 -30 256 -15 325 6 30
12 66 12 79 0 17 3 20 11 12 6 -6 19 -11 29 -11 10 0 18 -3 18 -8 0 -4 15 -16
33 -25 17 -10 52 -36 77 -58 l45 -40 -37 -30 c-22 -18 -38 -40 -38 -52 0 -11
-5 -36 -12 -54 -10 -29 -10 -36 2 -43 28 -18 59 -10 96 25 21 20 43 34 50 31
14 -5 17 -246 3 -320 -5 -28 -5 -54 0 -60 12 -15 31 -164 31 -243 0 -62 -1
-63 -27 -65 -71 -4 -106 5 -161 41 -77 52 -89 67 -97 131 -4 30 -23 96 -42
145 -19 50 -41 115 -48 145 -8 30 -32 107 -54 170 -22 63 -40 121 -41 128 0 7
-7 20 -15 28 -39 39 -49 143 -22 224 11 33 12 31 18 -55 4 -51 16 -112 27
-140z m1071 201 c-2 -2 -26 -9 -54 -14 -27 -5 -59 -13 -70 -16 -20 -7 -20 -7
0 5 28 18 140 41 124 25z m641 -36 c11 -8 7 -9 -15 -4 -37 8 -45 14 -19 14 10
0 26 -5 34 -10z m147 -17 c12 -8 19 -21 17 -28 -3 -7 4 -19 16 -25 28 -15 60
-85 59 -130 -1 -35 -1 -35 -10 8 -4 23 -16 56 -26 72 -17 30 -88 76 -148 98
-22 8 -25 11 -10 11 17 1 18 3 5 11 -10 7 -1 8 30 4 25 -4 55 -14 67 -21z
m-407 -43 c0 -5 -4 -10 -10 -10 -5 0 -10 5 -10 10 0 6 5 10 10 10 6 0 10 -4
10 -10z m-560 -75 c0 -9 6 -12 15 -9 9 4 15 0 15 -10 0 -9 -6 -16 -14 -16 -8
0 -17 -12 -21 -27 -6 -24 -8 -25 -14 -10 -9 24 -1 87 10 87 5 0 9 -7 9 -15z
m-70 -12 c0 -10 -3 -28 -6 -39 l-6 -21 -21 21 c-53 54 -53 56 -8 56 32 0 41
-4 41 -17z m2040 7 c0 -5 -2 -10 -4 -10 -3 0 -8 5 -11 10 -3 6 -1 10 4 10 6 0
11 -4 11 -10z m-1160 -50 c0 -5 -7 -10 -15 -10 -8 0 -15 5 -15 10 0 6 7 10 15
10 8 0 15 -4 15 -10z m-340 -40 c0 -5 -4 -10 -10 -10 -5 0 -10 5 -10 10 0 6 5
10 10 10 6 0 10 -4 10 -10z m-340 -20 c0 -5 -5 -10 -11 -10 -5 0 -7 5 -4 10 3
6 8 10 11 10 2 0 4 -4 4 -10z m-403 -892 c-3 -8 -6 -5 -6 6 -1 11 2 17 5 13 3
-3 4 -12 1 -19z m83 -654 c0 -16 8 -48 19 -70 10 -21 21 -56 25 -76 5 -27 15
-42 36 -55 17 -9 30 -23 30 -30 0 -7 6 -13 13 -13 7 0 21 -17 30 -38 9 -21 35
-58 57 -83 22 -24 40 -47 40 -51 0 -5 18 -27 40 -49 22 -23 40 -50 40 -60 0
-11 4 -19 10 -19 5 0 16 -14 25 -30 19 -37 124 -142 135 -135 5 3 6 -4 3 -15
-4 -16 0 -20 19 -20 24 0 55 -27 140 -121 18 -20 43 -39 56 -43 13 -4 22 -15
22 -27 0 -11 4 -18 9 -14 5 3 12 1 16 -5 3 -5 15 -10 26 -10 11 0 17 -4 14
-10 -3 -5 0 -10 8 -10 8 0 23 -11 33 -25 10 -14 26 -25 35 -25 9 0 28 -12 43
-26 15 -16 37 -27 53 -27 16 0 22 -2 16 -4 -25 -9 -12 -20 20 -18 17 2 46 -3
63 -10 18 -8 62 -12 103 -10 39 1 71 -1 71 -4 0 -10 39 -11 45 -1 3 5 12 7 19
4 26 -10 123 15 160 40 21 14 44 22 52 19 8 -3 14 -1 14 4 0 13 42 14 59 0 12
-10 13 -8 8 12 -6 26 14 50 44 51 9 0 25 11 35 25 10 14 29 25 41 25 14 0 23
6 23 15 0 14 11 19 38 16 6 -1 12 5 12 13 0 8 10 25 22 36 29 27 78 51 78 39
0 -6 5 -7 10 -4 6 4 10 16 8 28 -2 15 4 25 20 32 12 5 22 15 22 22 0 6 9 18
20 26 11 8 18 16 15 19 -3 3 4 13 15 23 11 10 20 25 20 34 0 13 2 13 9 2 7
-11 12 -8 25 13 9 14 23 37 31 51 8 13 42 43 75 67 33 23 60 47 60 54 0 13 49
48 57 41 15 -15 21 -160 13 -302 -13 -221 -29 -334 -51 -356 -10 -10 -24 -45
-33 -79 -9 -33 -27 -85 -41 -115 -29 -60 -183 -240 -221 -257 -25 -12 -32 -27
-36 -88 -3 -34 -3 -34 -162 -105 -110 -49 -177 -85 -220 -120 l-61 -49 -113
-4 c-133 -5 -154 -1 -172 33 -29 55 -117 97 -333 161 -115 34 -160 46 -332 90
-38 10 -96 18 -128 18 -65 1 -72 7 -108 82 -11 22 -43 69 -72 103 -36 42 -62
86 -79 134 -76 207 -180 531 -229 712 -28 102 -34 364 -9 405 l15 25 3 -30
c15 -174 68 -355 133 -454 41 -65 52 -49 12 17 -72 116 -121 304 -118 449 4
170 4 173 20 167 11 -5 15 1 15 22 0 27 -1 27 -15 8 -9 -11 -14 -14 -15 -6 0
7 6 19 13 26 10 12 14 10 24 -8 7 -11 12 -35 13 -52z m2582 -26 c-7 -7 -12 -8
-12 -2 0 14 12 26 19 19 2 -3 -1 -11 -7 -17z"/>
<path d="M5045 6250 c-3 -5 1 -10 9 -10 8 0 18 5 21 10 3 6 -1 10 -9 10 -8 0
-18 -4 -21 -10z"/>
<path d="M4295 6230 c3 -5 8 -10 11 -10 2 0 4 5 4 10 0 6 -5 10 -11 10 -5 0
-7 -4 -4 -10z"/>
<path d="M3282 5910 c-12 -10 -18 -21 -13 -25 6 -3 19 3 31 15 34 34 21 43
-18 10z"/>
<path d="M4827 4723 c-4 -3 -2 -12 4 -20 14 -16 59 -18 59 -2 0 6 -6 9 -12 6
-7 -2 -20 2 -29 9 -9 8 -19 11 -22 7z"/>
<path d="M4922 4689 c3 -8 18 -15 34 -17 33 -4 24 11 -15 23 -17 5 -22 4 -19
-6z"/>
<path d="M4040 4620 c0 -5 5 -10 10 -10 6 0 10 5 10 10 0 6 -4 10 -10 10 -5 0
-10 -4 -10 -10z"/>
<path d="M3660 4589 c0 -5 5 -7 10 -4 6 3 10 8 10 11 0 2 -4 4 -10 4 -5 0 -10
-5 -10 -11z"/>
<path d="M5048 4563 c7 -3 16 -2 19 1 4 3 -2 6 -13 5 -11 0 -14 -3 -6 -6z"/>
<path d="M2760 4486 c0 -9 5 -16 10 -16 6 0 10 4 10 9 0 6 -4 13 -10 16 -5 3
-10 -1 -10 -9z"/>
<path d="M3210 4391 c70 -58 346 -112 560 -110 95 1 190 11 170 18 -3 1 -88 3
-190 5 -205 3 -286 16 -427 66 -48 18 -99 34 -113 37 l-25 5 25 -21z"/>
<path d="M5867 4265 c-4 -8 -2 -17 3 -20 6 -4 10 3 10 14 0 25 -6 27 -13 6z"/>
<path d="M5535 4249 c-27 -10 -66 -20 -85 -20 -27 -1 -30 -3 -10 -6 l24 -5
-24 -14 c-24 -15 -24 -15 15 -9 47 8 155 54 155 66 0 13 -18 10 -75 -12z"/>
<path d="M5373 4213 c9 -2 23 -2 30 0 6 3 -1 5 -18 5 -16 0 -22 -2 -12 -5z"/>
<path d="M4215 3924 c-50 -16 -130 -17 -156 -4 -34 19 -23 -25 16 -59 20 -17
39 -32 43 -32 4 -1 18 -4 32 -6 14 -2 50 -5 80 -6 46 -2 55 -5 59 -22 2 -11
11 -31 21 -46 17 -24 23 -25 95 -23 79 3 125 21 125 49 0 22 37 37 83 34 51
-4 84 6 115 34 35 33 27 44 -38 51 -56 7 -61 5 -106 -27 l-46 -34 -77 15
c-125 23 -161 34 -161 47 0 7 -10 19 -22 27 -19 12 -30 12 -63 2z"/>
<path d="M3965 3515 c-5 -2 -45 -11 -87 -21 -72 -16 -79 -16 -102 0 -14 9 -32
16 -40 16 -21 0 -56 -48 -56 -78 0 -20 4 -23 22 -19 13 4 39 -3 62 -15 23 -11
53 -27 69 -35 15 -8 32 -11 38 -8 5 4 18 1 27 -7 38 -31 68 -41 92 -28 12 6
32 9 45 6 15 -4 29 0 39 10 9 8 16 11 16 6 0 -12 42 -3 51 10 8 12 117 11 189
0 30 -5 69 -8 85 -6 17 1 61 5 99 9 38 3 73 8 77 11 4 2 15 -3 24 -13 27 -26
193 -23 263 5 29 12 65 22 80 22 15 0 34 5 42 10 29 20 -15 38 -88 37 -38 0
-87 7 -115 16 -55 20 -118 22 -134 6 -14 -14 -306 -20 -348 -7 -16 5 -52 20
-80 34 -64 30 -225 54 -270 39z"/>
<path d="M5125 2418 c-27 -81 -73 -168 -117 -220 -21 -27 -35 -48 -31 -48 15
0 90 84 117 131 23 41 61 177 52 187 -2 2 -12 -21 -21 -50z"/>
<path d="M4865 2059 c-22 -21 -35 -39 -29 -39 12 0 80 68 73 74 -2 2 -22 -14
-44 -35z"/>
<path d="M4780 1980 c-6 -11 -8 -20 -6 -20 3 0 10 9 16 20 6 11 8 20 6 20 -3
0 -10 -9 -16 -20z"/>
</g>
</svg>
